<svg xmlns="http://www.w3.org/2000/svg"
     width="1446"
     height="774"
     viewBox="1559.3859 50.063095000000004 1445.6141 773.031005">
  <defs>
<marker id="connector-arrow-0" markerUnits="userSpaceOnUse" markerWidth="40" markerHeight="40" refX="12.12435565298214" refY="0" orient="auto" overflow="visible"><path fill="none" stroke="#000000" stroke-width="2" d="M 10.12435565298214 0 L 1 -5.267949192431123 L 1 5.267949192431123 Z"/></marker>
<marker id="connector-arrow-1" markerUnits="userSpaceOnUse" markerWidth="40" markerHeight="40" refX="7" refY="0" orient="auto" overflow="visible"><path fill="none" stroke="#62d256" stroke-width="2" stroke-linecap="round" stroke-linejoin="round" d="M 0 -6 L 6 0 L 0 6 M 0 0 L 6 0"/></marker>
<marker id="connector-arrow-2" markerUnits="userSpaceOnUse" markerWidth="40" markerHeight="40" refX="7" refY="0" orient="auto" overflow="visible"><path fill="none" stroke="#bbbfc4" stroke-width="2" stroke-linecap="round" stroke-linejoin="round" d="M 0 -6 L 6 0 L 0 6 M 0 0 L 6 0"/></marker>
<marker id="connector-arrow-3" markerUnits="userSpaceOnUse" markerWidth="40" markerHeight="40" refX="7" refY="0" orient="auto" overflow="visible"><path fill="none" stroke="#bbbfc4" stroke-width="2" stroke-linecap="round" stroke-linejoin="round" d="M 0 -6 L 6 0 L 0 6 M 0 0 L 6 0"/></marker>
<marker id="connector-arrow-4" markerUnits="userSpaceOnUse" markerWidth="40" markerHeight="40" refX="7" refY="0" orient="auto" overflow="visible"><path fill="none" stroke="#bbbfc4" stroke-width="2" stroke-linecap="round" stroke-linejoin="round" d="M 0 -6 L 6 0 L 0 6 M 0 0 L 6 0"/></marker>
<marker id="connector-arrow-5" markerUnits="userSpaceOnUse" markerWidth="40" markerHeight="40" refX="7" refY="0" orient="auto" overflow="visible"><path fill="none" stroke="#bbbfc4" stroke-width="2" stroke-linecap="round" stroke-linejoin="round" d="M 0 -6 L 6 0 L 0 6 M 0 0 L 6 0"/></marker>
<marker id="connector-arrow-6" markerUnits="userSpaceOnUse" markerWidth="40" markerHeight="40" refX="7" refY="0" orient="auto" overflow="visible"><path fill="none" stroke="#bbbfc4" stroke-width="2" stroke-linecap="round" stroke-linejoin="round" d="M 0 -6 L 6 0 L 0 6 M 0 0 L 6 0"/></marker>
<marker id="connector-arrow-7" markerUnits="userSpaceOnUse" markerWidth="40" markerHeight="40" refX="7" refY="0" orient="auto" overflow="visible"><path fill="none" stroke="#bbbfc4" stroke-width="2" stroke-linecap="round" stroke-linejoin="round" d="M 0 -6 L 6 0 L 0 6 M 0 0 L 6 0"/></marker>
<marker id="connector-arrow-8" markerUnits="userSpaceOnUse" markerWidth="40" markerHeight="40" refX="7" refY="0" orient="auto" overflow="visible"><path fill="none" stroke="#bbbfc4" stroke-width="2" stroke-linecap="round" stroke-linejoin="round" d="M 0 -6 L 6 0 L 0 6 M 0 0 L 6 0"/></marker>
<marker id="connector-arrow-9" markerUnits="userSpaceOnUse" markerWidth="40" markerHeight="40" refX="7" refY="0" orient="auto" overflow="visible"><path fill="none" stroke="#bbbfc4" stroke-width="2" stroke-linecap="round" stroke-linejoin="round" d="M 0 -6 L 6 0 L 0 6 M 0 0 L 6 0"/></marker>
<marker id="connector-arrow-10" markerUnits="userSpaceOnUse" markerWidth="40" markerHeight="40" refX="7" refY="0" orient="auto" overflow="visible"><path fill="none" stroke="#bbbfc4" stroke-width="2" stroke-linecap="round" stroke-linejoin="round" d="M 0 -6 L 6 0 L 0 6 M 0 0 L 6 0"/></marker>
<marker id="connector-arrow-11" markerUnits="userSpaceOnUse" markerWidth="40" markerHeight="40" refX="7" refY="0" orient="auto" overflow="visible"><path fill="none" stroke="#bbbfc4" stroke-width="2" stroke-linecap="round" stroke-linejoin="round" d="M 0 -6 L 6 0 L 0 6 M 0 0 L 6 0"/></marker>
<marker id="connector-arrow-12" markerUnits="userSpaceOnUse" markerWidth="40" markerHeight="40" refX="7" refY="0" orient="auto" overflow="visible"><path fill="none" stroke="#bbbfc4" stroke-width="2" stroke-linecap="round" stroke-linejoin="round" d="M 0 -6 L 6 0 L 0 6 M 0 0 L 6 0"/></marker>
<marker id="connector-arrow-13" markerUnits="userSpaceOnUse" markerWidth="40" markerHeight="40" refX="7" refY="0" orient="auto" overflow="visible"><path fill="none" stroke="#bbbfc4" stroke-width="2" stroke-linecap="round" stroke-linejoin="round" d="M 0 -6 L 6 0 L 0 6 M 0 0 L 6 0"/></marker>
<marker id="connector-arrow-14" markerUnits="userSpaceOnUse" markerWidth="40" markerHeight="40" refX="7" refY="0" orient="auto" overflow="visible"><path fill="none" stroke="#bbbfc4" stroke-width="2" stroke-linecap="round" stroke-linejoin="round" d="M 0 -6 L 6 0 L 0 6 M 0 0 L 6 0"/></marker>
<marker id="connector-arrow-15" markerUnits="userSpaceOnUse" markerWidth="40" markerHeight="40" refX="7" refY="0" orient="auto" overflow="visible"><path fill="none" stroke="#bbbfc4" stroke-width="2" stroke-linecap="round" stroke-linejoin="round" d="M 0 -6 L 6 0 L 0 6 M 0 0 L 6 0"/></marker>
<marker id="connector-arrow-16" markerUnits="userSpaceOnUse" markerWidth="40" markerHeight="40" refX="7" refY="0" orient="auto" overflow="visible"><path fill="none" stroke="#bbbfc4" stroke-width="2" stroke-linecap="round" stroke-linejoin="round" d="M 0 -6 L 6 0 L 0 6 M 0 0 L 6 0"/></marker>
<marker id="connector-arrow-17" markerUnits="userSpaceOnUse" markerWidth="40" markerHeight="40" refX="7" refY="0" orient="auto" overflow="visible"><path fill="none" stroke="#bbbfc4" stroke-width="2" stroke-linecap="round" stroke-linejoin="round" d="M 0 -6 L 6 0 L 0 6 M 0 0 L 6 0"/></marker>
<marker id="connector-arrow-18" markerUnits="userSpaceOnUse" markerWidth="40" markerHeight="40" refX="7" refY="0" orient="auto" overflow="visible"><path fill="none" stroke="#bbbfc4" stroke-width="2" stroke-linecap="round" stroke-linejoin="round" d="M 0 -6 L 6 0 L 0 6 M 0 0 L 6 0"/></marker>
<marker id="connector-arrow-19" markerUnits="userSpaceOnUse" markerWidth="40" markerHeight="40" refX="7" refY="0" orient="auto" overflow="visible"><path fill="none" stroke="#bbbfc4" stroke-width="2" stroke-linecap="round" stroke-linejoin="round" d="M 0 -6 L 6 0 L 0 6 M 0 0 L 6 0"/></marker>
<marker id="connector-arrow-20" markerUnits="userSpaceOnUse" markerWidth="40" markerHeight="40" refX="7" refY="0" orient="auto" overflow="visible"><path fill="none" stroke="#bbbfc4" stroke-width="2" stroke-linecap="round" stroke-linejoin="round" d="M 0 -6 L 6 0 L 0 6 M 0 0 L 6 0"/></marker>
<marker id="connector-arrow-21" markerUnits="userSpaceOnUse" markerWidth="40" markerHeight="40" refX="7" refY="0" orient="auto" overflow="visible"><path fill="none" stroke="#bbbfc4" stroke-width="2" stroke-linecap="round" stroke-linejoin="round" d="M 0 -6 L 6 0 L 0 6 M 0 0 L 6 0"/></marker>
<marker id="connector-arrow-22" markerUnits="userSpaceOnUse" markerWidth="40" markerHeight="40" refX="7" refY="0" orient="auto" overflow="visible"><path fill="none" stroke="#bbbfc4" stroke-width="2" stroke-linecap="round" stroke-linejoin="round" d="M 0 -6 L 6 0 L 0 6 M 0 0 L 6 0"/></marker>
<marker id="connector-arrow-23" markerUnits="userSpaceOnUse" markerWidth="40" markerHeight="40" refX="7" refY="0" orient="auto" overflow="visible"><path fill="none" stroke="#bbbfc4" stroke-width="2" stroke-linecap="round" stroke-linejoin="round" d="M 0 -6 L 6 0 L 0 6 M 0 0 L 6 0"/></marker>
  </defs>
<g id="c1:21" transform="translate(2805, 169)"><path fill="none" stroke="#bbbfc4" stroke-width="2" stroke-dasharray="4 4" d="M 1.5 0 L 0 634.094"/></g>
<g id="c1:19" transform="translate(2324, 169)"><path fill="none" stroke="#bbbfc4" stroke-width="2" stroke-dasharray="4 4" d="M 2.5 0 L 0 634.0941"/></g>
<g id="c1:20" transform="translate(2521.9207, 169)"><path fill="none" stroke="#bbbfc4" stroke-width="2" stroke-dasharray="4 4" d="M 0 0 L 0.0793457 634.094"/></g>
<g id="c1:11" transform="translate(1801, 169)"><path fill="none" stroke="#bbbfc4" stroke-width="2" stroke-dasharray="4 4" d="M 0.5 0 L 0 634.094"/></g>
<g id="c1:18" transform="translate(2058.5, 169)"><path fill="none" stroke="#f76964" stroke-width="2" stroke-dasharray="4 4" d="M 1.5 0 L 0 634.09406"/></g>
<g id="o1:8" transform="translate(1761, 191.5)"><rect x="0" y="0" width="185" height="57" fill="rgba(62, 57, 92, 1)" stroke="none" stroke-width="0" rx="6" ry="6"/><text font-size="14" font-family="Noto Sans SC" font-weight="medium" fill="#ffffff" text-anchor="middle" dominant-baseline="alphabetic" x="92.5"><tspan x="92.5" y="24.699"><tspan x="20.825" text-anchor="start">自动从master分支拉出</tspan></tspan><tspan x="92.5" y="44.971"><tspan x="55.135" text-anchor="start">release分支</tspan></tspan></text></g>
<g id="o1:10" transform="translate(1970.5, 201)"><rect x="0" y="0" width="180" height="38" fill="rgba(184, 91, 65, 1)" stroke="none" stroke-width="0" rx="6" ry="6"/><text font-size="14" font-family="Noto Sans SC" font-weight="medium" fill="#ffffff" text-anchor="middle" dominant-baseline="alphabetic" x="90"><tspan x="90" y="25.335"><tspan x="48" text-anchor="start">截止提交车票</tspan></tspan></text></g>
<g id="o1:11" transform="translate(2323, 70.063095)"><rect x="0" y="0" width="199" height="38" fill="rgba(109, 181, 163, 1)" stroke="none" stroke-width="0" rx="6" ry="6"/><text font-size="14" font-family="Noto Sans SC" font-weight="medium" fill="#2b2f36" text-anchor="middle" dominant-baseline="alphabetic" x="99.5"><tspan x="99.5" y="25.335"><tspan x="71.5" text-anchor="start">冻结阶段</tspan></tspan></text></g>
<g id="c1:10" transform="translate(1579.3859, 281)"><path fill="none" stroke="#000000" stroke-width="2" stroke-linecap="butt" stroke-linejoin="round" marker-end="url(#connector-arrow-0)" stroke-dasharray="0 0 1393.4941018662732 12.12435565298214" d="M 0 3.5 L 1405.6141 0"/><g transform="translate(84.36639999902913, 3.28992641010317) translate(-140, -14.136)"><text font-size="14" font-family="Noto Sans SC" font-weight="normal" fill="#2b2f36" text-anchor="middle" dominant-baseline="alphabetic" x="140"><tspan x="140" y="20.471"><tspan x="103.325" text-anchor="start">master分支</tspan></tspan></text></g></g>
<g id="o1:15" transform="translate(2019.5, 141)"><rect x="0" y="0" width="81" height="28" fill="rgba(239, 240, 241, 1)" stroke="#bbbfc4" stroke-width="2" rx="14" ry="14"/><text font-size="14" font-family="Noto Sans SC" font-weight="normal" fill="#2b2f36" text-anchor="middle" dominant-baseline="alphabetic" x="40.5"><tspan x="40.5" y="20.335"><tspan x="23.015" text-anchor="start">11:00</tspan></tspan></text></g>
<g id="o1:16" transform="translate(2286, 141)"><rect x="0" y="0" width="81" height="28" fill="rgba(239, 240, 241, 1)" stroke="#bbbfc4" stroke-width="2" rx="14" ry="14"/><text font-size="14" font-family="Noto Sans SC" font-weight="normal" fill="#2b2f36" text-anchor="middle" dominant-baseline="alphabetic" x="40.5"><tspan x="40.5" y="20.335"><tspan x="23.015" text-anchor="start">15:00</tspan></tspan></text></g>
<g id="c1:15" transform="translate(2100.5, 155)"><path fill="none" stroke="#bbbfc4" stroke-width="2" stroke-dasharray="4 4" d="M 0 0 L 185.5 0"/></g>
<g id="o1:17" transform="translate(2481.4207, 141)"><rect x="0" y="0" width="81" height="28" fill="rgba(239, 240, 241, 1)" stroke="#bbbfc4" stroke-width="2" rx="14" ry="14"/><text font-size="14" font-family="Noto Sans SC" font-weight="normal" fill="#2b2f36" text-anchor="middle" dominant-baseline="alphabetic" x="40.5"><tspan x="40.5" y="20.335"><tspan x="23.015" text-anchor="start">16:00</tspan></tspan></text></g>
<g id="c1:16" transform="translate(2367, 155)"><path fill="none" stroke="#bbbfc4" stroke-width="2" stroke-dasharray="4 4" d="M 0 0 L 114.420654 0"/></g>
<g id="o1:18" transform="translate(2766, 141)"><rect x="0" y="0" width="81" height="28" fill="rgba(239, 240, 241, 1)" stroke="#bbbfc4" stroke-width="2" rx="14" ry="14"/><text font-size="14" font-family="Noto Sans SC" font-weight="normal" fill="#2b2f36" text-anchor="middle" dominant-baseline="alphabetic" x="40.5"><tspan x="40.5" y="20.335"><tspan x="23.015" text-anchor="start">19:00</tspan></tspan></text></g>
<g id="c1:17" transform="translate(2562.4207, 155)"><path fill="none" stroke="#bbbfc4" stroke-width="2" stroke-dasharray="4 4" d="M 0 0 L 203.57935 0"/></g>
<g id="c1:23" transform="translate(1801, 284.5)"><path fill="none" stroke="#62d256" stroke-width="2" stroke-linecap="butt" stroke-linejoin="round" marker-end="url(#connector-arrow-1)" stroke-dasharray="0 0 1224.2605895 7" d="M 0 5.5000305 L 0 108.38031 A 8 8 0 0 0 8 116.38031 L 996 116.38031 A 8 8 0 0 0 1004 108.38031 L 1004 0"/><g transform="translate(931.53687, 116.38031) translate(-140, -14.136)"><text font-size="14" font-family="Noto Sans SC" font-weight="normal" fill="#2b2f36" text-anchor="middle" dominant-baseline="alphabetic" x="140"><tspan x="140" y="20.471"><tspan x="102.635" text-anchor="start">release分支</tspan></tspan></text></g></g>
<g id="o1:20" transform="translate(1802, 70.063095)"><rect x="0" y="0" width="521" height="38" fill="rgba(217, 245, 214, 1)" stroke="none" stroke-width="0" rx="6" ry="6"/><text font-size="14" font-family="Noto Sans SC" font-weight="medium" fill="#2b2f36" text-anchor="middle" dominant-baseline="alphabetic" x="260.5"><tspan x="260.5" y="25.335"><tspan x="232.5" text-anchor="start">集成阶段</tspan></tspan></text></g>
<g id="o1:21" transform="translate(2522, 70.063095)"><rect x="0" y="0" width="325" height="38" fill="rgba(217, 245, 214, 1)" stroke="none" stroke-width="0" rx="6" ry="6"/><text font-size="14" font-family="Noto Sans SC" font-weight="medium" fill="#2b2f36" text-anchor="middle" dominant-baseline="alphabetic" x="162.5"><tspan x="162.5" y="25.335"><tspan x="134.5" text-anchor="start">部署阶段</tspan></tspan></text></g>
<g id="o1:22" transform="translate(1579.3859, 70.063095)"><rect x="0" y="0" width="221.614" height="38" fill="rgba(78, 131, 253, 1)" stroke="none" stroke-width="0" rx="6" ry="6"/><text font-size="14" font-family="Noto Sans SC" font-weight="medium" fill="#ffffff" text-anchor="middle" dominant-baseline="alphabetic" x="110.807"><tspan x="110.807" y="25.335"><tspan x="73.397" text-anchor="start">      创建火车</tspan></tspan></text></g>
<g id="o1:23" transform="translate(2847, 70.063095)"><rect x="0" y="0" width="138" height="38" fill="rgba(255, 165, 61, 1)" stroke="none" stroke-width="0" rx="6" ry="6"/><text font-size="14" font-family="Noto Sans SC" font-weight="medium" fill="#2b2f36" text-anchor="middle" dominant-baseline="alphabetic" x="69"><tspan x="69" y="25.335"><tspan x="41" text-anchor="start">结束火车</tspan></tspan></text></g>
<g id="o1:24" transform="translate(1661.6925, 141)"><rect x="0" y="0" width="81" height="28" fill="rgba(239, 240, 241, 1)" stroke="#bbbfc4" stroke-width="2" rx="14" ry="14"/><text font-size="14" font-family="Noto Sans SC" font-weight="normal" fill="#2b2f36" text-anchor="middle" dominant-baseline="alphabetic" x="40.5"><tspan x="40.5" y="20.335"><tspan x="16.015" text-anchor="start">昨19:00</tspan></tspan></text></g>
<g id="o1:25" transform="translate(1761, 141)"><rect x="0" y="0" width="81" height="28" fill="rgba(239, 240, 241, 1)" stroke="#bbbfc4" stroke-width="2" rx="14" ry="14"/><text font-size="14" font-family="Noto Sans SC" font-weight="normal" fill="#2b2f36" text-anchor="middle" dominant-baseline="alphabetic" x="40.5"><tspan x="40.5" y="20.335"><tspan x="26.9" text-anchor="start">9:00</tspan></tspan></text></g>
<g id="c1:30" transform="translate(1742.6925, 155)"><path fill="none" stroke="#bbbfc4" stroke-width="2" stroke-dasharray="4 4" d="M 0 0 L 18.307495 0"/></g>
<g id="c1:32" transform="translate(1842, 155)"><path fill="none" stroke="#bbbfc4" stroke-width="2" stroke-dasharray="4 4" d="M 0 0 L 177.5 0"/></g>
<g id="c1:33" transform="translate(1946, 220)"><path fill="none" stroke="#bbbfc4" stroke-width="2" stroke-linecap="butt" stroke-linejoin="round" marker-end="url(#connector-arrow-2)" stroke-dasharray="0 0 17.5 7" d="M 0 0 L 24.5 0"/></g>
<g id="p1:2" transform="translate(1621.4058, 73.063095)"><defs><symbol id="svgicon-p1-2" viewBox="0 0 48 48" fill="none">
<rect x="8" y="6" width="32" height="26" rx="2" stroke="#4e83fd" stroke-width="3"/>
<circle cx="14" cy="27" r="2" fill="#4e83fd"/>
<circle cx="34" cy="27" r="2" fill="#4e83fd"/>
<rect x="14" y="12" width="20" height="10" fill="rgba(0,0,0,0)" stroke="#4e83fd" stroke-width="3" stroke-linecap="butt" stroke-linejoin="miter" fill-opacity="0"/>
<path d="M32 32L40 41" stroke="#4e83fd" stroke-width="3" stroke-linecap="butt" stroke-linejoin="miter"/>
<path d="M17 32L8 41" stroke="#4e83fd" stroke-width="3" stroke-linecap="butt" stroke-linejoin="miter"/>
</symbol></defs><use href="#svgicon-p1-2" x="0" y="0" width="32" height="32"/></g>
<g id="o1:26" transform="translate(2176, 201)"><rect x="0" y="0" width="148" height="38" fill="rgba(253, 226, 226, 1)" stroke="none" stroke-width="0" rx="6" ry="6"/><text font-size="14" font-family="Noto Sans SC" font-weight="medium" fill="#2b2f36" text-anchor="middle" dominant-baseline="alphabetic" x="74"><tspan x="74" y="25.335"><tspan x="46" text-anchor="start">批准车票</tspan></tspan></text></g>
<g id="c1:34" transform="translate(2150.5, 220)"><path fill="none" stroke="#bbbfc4" stroke-width="2" stroke-linecap="butt" stroke-linejoin="round" marker-end="url(#connector-arrow-3)" stroke-dasharray="0 0 18.5 7" d="M 0 0 L 25.5 0"/></g>
<g id="o1:27" transform="translate(2522, 201)"><rect x="0" y="0" width="325" height="38" fill="rgba(217, 245, 214, 1)" stroke="none" stroke-width="0" rx="6" ry="6"/><text font-size="14" font-family="Noto Sans SC" font-weight="medium" fill="#2b2f36" text-anchor="middle" dominant-baseline="alphabetic" x="162.5"><tspan x="162.5" y="25.335"><tspan x="134.5" text-anchor="start">上线部署</tspan></tspan></text></g>
<g id="c1:35" transform="translate(2324, 220)"><path fill="none" stroke="#bbbfc4" stroke-width="2" stroke-linecap="butt" stroke-linejoin="round" marker-end="url(#connector-arrow-4)" stroke-dasharray="0 0 191 7" d="M 0 0 L 198 0"/></g>
<g id="o1:29" transform="translate(1840, 425)"><rect x="0" y="0" width="169" height="38.063" fill="#fde2e2" stroke="#f76964" stroke-width="2" rx="19.031615" ry="19.031615"/><text font-size="14" font-family="Noto Sans SC" font-weight="normal" fill="#1f2329" text-anchor="middle" dominant-baseline="alphabetic" x="84.5"><tspan x="84.5" y="25.367"><tspan x="56.5" text-anchor="start">上线流程</tspan></tspan></text></g>
<g id="o1:30" transform="translate(1840, 499.6239)"><rect x="0" y="0" width="169" height="38.063" fill="rgba(254, 234, 210, 1)" stroke="#ffa53d" stroke-width="2" rx="19.031615" ry="19.031615"/><text font-size="14" font-family="Noto Sans SC" font-weight="normal" fill="#2b2f36" text-anchor="middle" dominant-baseline="alphabetic" x="84.5"><tspan x="84.5" y="25.367"><tspan x="35.5" text-anchor="start">车票检测需通过</tspan></tspan></text></g>
<g id="c1:36" transform="translate(1924.5, 463.06323)"><path fill="none" stroke="#bbbfc4" stroke-width="2" stroke-linecap="butt" stroke-linejoin="round" marker-end="url(#connector-arrow-5)" stroke-dasharray="0 0 29.560670000000002 7" d="M 0 0 L 0 36.56067"/></g>
<g id="o1:31" transform="translate(1840, 565.73376)"><rect x="0" y="0" width="169" height="38.063" fill="rgba(254, 234, 210, 1)" stroke="#62d256" stroke-width="2" rx="19.031615" ry="19.031615"/><text font-size="14" font-family="Noto Sans SC" font-weight="normal" fill="#2b2f36" text-anchor="middle" dominant-baseline="alphabetic" x="84.5"><tspan x="84.5" y="25.367"><tspan x="56.5" text-anchor="start">单测通过</tspan></tspan></text></g>
<g id="c1:37" transform="translate(1924.5, 537.68713)"><path fill="none" stroke="#bbbfc4" stroke-width="2" stroke-linecap="butt" stroke-linejoin="round" marker-end="url(#connector-arrow-6)" stroke-dasharray="0 0 21.04663 7" d="M 0 0 L 0 28.04663"/></g>
<g id="o1:33" transform="translate(1840, 700.26624)"><rect x="0" y="0" width="169" height="38.063" fill="rgba(254, 234, 210, 1)" stroke="#62d256" stroke-width="2" rx="19.031615" ry="19.031615"/><text font-size="14" font-family="Noto Sans SC" font-weight="normal" fill="#2b2f36" text-anchor="middle" dominant-baseline="alphabetic" x="84.5"><tspan x="84.5" y="25.367"><tspan x="42.5" text-anchor="start">其他需求通过</tspan></tspan></text></g>
<g id="o1:34" transform="translate(2059, 425)"><rect x="0" y="0" width="460" height="38.063" fill="#eff0f1" stroke="#bbbfc4" stroke-width="2" rx="19.031615" ry="19.031615"/><text font-size="14" font-family="Noto Sans SC" font-weight="normal" fill="#1f2329" text-anchor="middle" dominant-baseline="alphabetic" x="230"><tspan x="230" y="25.367"><tspan x="174" text-anchor="start">紧急情况允许补票</tspan></tspan></text></g>
<g id="o1:35" transform="translate(2108, 500)"><rect x="0" y="0" width="178" height="38.063" fill="#eff0f1" stroke="#bbbfc4" stroke-width="2" rx="19.031615" ry="19.031615"/><text font-size="14" font-family="Noto Sans SC" font-weight="normal" fill="#1f2329" text-anchor="middle" dominant-baseline="alphabetic" x="89"><tspan x="89" y="25.367"><tspan x="33" text-anchor="start">申请批准需求车票</tspan></tspan></text></g>
<g id="o1:36" transform="translate(2332.5, 500)"><rect x="0" y="0" width="178" height="38.063" fill="rgba(239, 240, 241, 1)" stroke="#000000" stroke-width="2" stroke-opacity="0.15" rx="19.031615" ry="19.031615"/><text font-size="14" font-family="Noto Sans SC" font-weight="normal" fill="#2b2f36" text-anchor="middle" dominant-baseline="alphabetic" x="89"><tspan x="89" y="25.367"><tspan x="47" text-anchor="start">超时拒绝合入</tspan></tspan></text></g>
<g id="c1:41" transform="translate(2009, 519.0316)"><path fill="none" stroke="#bbbfc4" stroke-width="2" stroke-linecap="butt" stroke-linejoin="round" marker-end="url(#connector-arrow-7)" stroke-dasharray="0 0 292.26624000000004 7" d="M 0 200.26624 L 41.5 200.26624 A 8 8 0 0 0 49.5 192.26624 L 49.5 8 A 8 8 0 0 1 57.5 0 L 99 0"/></g>
<g id="c1:42" transform="translate(2009, 444.03162)"><path fill="none" stroke="#bbbfc4" stroke-width="2" stroke-linecap="butt" stroke-linejoin="round" marker-end="url(#connector-arrow-8)" stroke-dasharray="0 0 43 7" d="M 0 0 L 50 0"/></g>
<g id="c1:43" transform="translate(1924.5, 463.06323)"><path fill="none" stroke="#bbbfc4" stroke-width="2" stroke-linecap="butt" stroke-linejoin="round" marker-end="url(#connector-arrow-9)" stroke-dasharray="0 0 394.06066999999996 7" d="M 364.5 0 L 364.5 10.280334 A 8 8 0 0 1 356.5 18.280334 L 8 18.280334 A 8 8 0 0 0 0 26.280334 L 0 36.56067"/></g>
<g id="c1:44" transform="translate(2286, 518.6555)"><path fill="none" stroke="#bbbfc4" stroke-width="2" stroke-linecap="butt" stroke-linejoin="round" marker-end="url(#connector-arrow-10)" stroke-dasharray="0 0 39.5 7" d="M 0 0 L 46.5 0"/></g>
<g id="o1:38" transform="translate(2108, 604)"><rect x="0" y="0" width="178" height="38.063" fill="rgba(239, 240, 241, 1)" stroke="#bbbfc4" stroke-width="2" rx="19.031615" ry="19.031615"/><text font-size="14" font-family="Noto Sans SC" font-weight="normal" fill="#2b2f36" text-anchor="middle" dominant-baseline="alphabetic" x="89"><tspan x="89" y="25.367"><tspan x="61" text-anchor="start">批准合入</tspan></tspan></text></g>
<g id="o1:39" transform="translate(2288, 317)"><rect x="0" y="0" width="313" height="38" fill="rgba(225, 234, 255, 1)" stroke="none" stroke-width="0" rx="6" ry="6"/><text font-size="14" font-family="Noto Sans SC" font-weight="medium" fill="#2b2f36" text-anchor="middle" dominant-baseline="alphabetic" x="156.5"><tspan x="156.5" y="25.335"><tspan x="114.5" text-anchor="start">紧急修复车票</tspan></tspan></text></g>
<g id="c1:48" transform="translate(2196, 335)"><path fill="none" stroke="#bbbfc4" stroke-width="2" stroke-linecap="butt" stroke-linejoin="round" marker-end="url(#connector-arrow-11)" stroke-dasharray="0 0 113.00274058226915 7" d="M 1 65 C 31.333496 65 38.916748 49 46.5 33 C 54.083252 17 61.666504 1 92 1"/></g>
<g id="c1:49" transform="translate(2600, 335)"><path fill="none" stroke="#bbbfc4" stroke-width="2" stroke-linecap="butt" stroke-linejoin="round" marker-end="url(#connector-arrow-12)" stroke-dasharray="0 0 92.54208147050967 7" d="M 1 1 C 22.666504 1 28.083252 17 33.5 33 C 38.916748 49 44.333496 65 66 65"/></g>
<g id="c1:50" transform="translate(2601, 284.5)"><path fill="none" stroke="#bbbfc4" stroke-width="2" stroke-linecap="butt" stroke-linejoin="round" marker-end="url(#connector-arrow-13)" stroke-dasharray="0 0 154.5 7" d="M 0 51.5 L 102 51.5 A 8 8 0 0 0 110 43.5 L 110 0"/></g>
<g id="o1:40" transform="translate(2108, 688)"><rect x="0" y="0" width="178" height="38.063" fill="rgba(239, 240, 241, 1)" stroke="#bbbfc4" stroke-width="2" rx="19.031615" ry="19.031615"/><text font-size="14" font-family="Noto Sans SC" font-weight="normal" fill="#2b2f36" text-anchor="middle" dominant-baseline="alphabetic" x="89"><tspan x="89" y="25.367"><tspan x="61" text-anchor="start">成功上车</tspan></tspan></text></g>
<g id="c1:51" transform="translate(2197, 642.06323)"><path fill="none" stroke="#bbbfc4" stroke-width="2" stroke-linecap="butt" stroke-linejoin="round" marker-end="url(#connector-arrow-14)" stroke-dasharray="0 0 38.936768 7" d="M 0 0 L 0 45.936768"/></g>
<g id="o1:41" transform="translate(2332.5, 603.797)"><rect x="0" y="0" width="178" height="38" fill="#eff0f1" stroke="#bbbfc4" stroke-width="2" rx="19" ry="19"/><text font-size="14" font-family="Noto Sans SC" font-weight="normal" fill="#1f2329" text-anchor="middle" dominant-baseline="alphabetic" x="89"><tspan x="89" y="25.335"><tspan x="54" text-anchor="start">补票、修复</tspan></tspan></text></g>
<g id="c1:52" transform="translate(2847, 155)"><path fill="none" stroke="#bbbfc4" stroke-width="2" stroke-dasharray="4 4" d="M 0 0 L 138 0"/></g>
<g id="o1:43" transform="translate(2574, 452)"><rect x="0" y="0" width="178" height="38" fill="rgba(239, 240, 241, 1)" stroke="#bbbfc4" stroke-width="2" rx="19" ry="19"/><text font-size="14" font-family="Noto Sans SC" font-weight="normal" fill="#2b2f36" text-anchor="middle" dominant-baseline="alphabetic" x="89"><tspan x="89" y="25.335"><tspan x="68" text-anchor="start">小流量</tspan></tspan></text></g>
<g id="o1:44" transform="translate(2574, 538)"><rect x="0" y="0" width="178" height="38" fill="rgba(239, 240, 241, 1)" stroke="#bbbfc4" stroke-width="2" rx="19" ry="19"/><text font-size="14" font-family="Noto Sans SC" font-weight="normal" fill="#2b2f36" text-anchor="middle" dominant-baseline="alphabetic" x="89"><tspan x="89" y="25.335"><tspan x="68" text-anchor="start">单机房</tspan></tspan></text></g>
<g id="c1:53" transform="translate(2663, 490)"><path fill="none" stroke="#bbbfc4" stroke-width="2" stroke-linecap="butt" stroke-linejoin="round" marker-end="url(#connector-arrow-15)" stroke-dasharray="0 0 41 7" d="M 0 0 L 0 48"/></g>
<g id="o1:45" transform="translate(2574, 627)"><rect x="0" y="0" width="178" height="38" fill="rgba(239, 240, 241, 1)" stroke="#bbbfc4" stroke-width="2" rx="19" ry="19"/><text font-size="14" font-family="Noto Sans SC" font-weight="normal" fill="#2b2f36" text-anchor="middle" dominant-baseline="alphabetic" x="89"><tspan x="89" y="25.335"><tspan x="68" text-anchor="start">全流量</tspan></tspan></text></g>
<g id="c1:54" transform="translate(2663, 576)"><path fill="none" stroke="#bbbfc4" stroke-width="2" stroke-linecap="butt" stroke-linejoin="round" marker-end="url(#connector-arrow-16)" stroke-dasharray="0 0 44 7" d="M 0 0 L 0 51"/></g>
<g id="c1:55" transform="translate(2286, 471)"><path fill="none" stroke="#bbbfc4" stroke-width="2" stroke-linecap="butt" stroke-linejoin="round" marker-end="url(#connector-arrow-17)" stroke-dasharray="0 0 517.03162 7" d="M 0 236.03162 L 245.16821 236.03162 A 8 8 0 0 0 253.16821 228.03162 L 253.16821 8 A 8 8 0 0 1 261.16821 0 L 288 0"/></g>
<g id="c1:56" transform="translate(2752, 108.063095)"><path fill="none" stroke="#bbbfc4" stroke-width="2" stroke-linecap="butt" stroke-linejoin="round" marker-end="url(#connector-arrow-18)" stroke-dasharray="0 0 694.9369 7" d="M 0 537.9369 L 156 537.9369 A 8 8 0 0 0 164 529.9369 L 164 0"/></g>
<g id="c1:57" transform="translate(1689.1927, 107.063095)"><path fill="none" stroke="#bbbfc4" stroke-width="2" stroke-linecap="butt" stroke-linejoin="round" marker-end="url(#connector-arrow-19)" stroke-dasharray="0 0 218.4975151796973 7" d="M 1 1 C 0.9999987842858 28.8123 133.06897 3.2542720000000003 161.15857 29.20082 C 175.58252 42.524489 164.30724926646735 67.65563399999999 164.30725 84.436905"/></g>
<g id="c1:58" transform="translate(2847, 108.063095)"><path fill="none" stroke="#bbbfc4" stroke-width="2" stroke-linecap="butt" stroke-linejoin="round" marker-end="url(#connector-arrow-20)" stroke-dasharray="0 0 173.936905 7" d="M 0 111.936905 L 61 111.936905 A 8 8 0 0 0 69 103.936905 L 69 0"/></g>
<g id="c1:59" transform="translate(2197, 538.06323)"><path fill="none" stroke="#bbbfc4" stroke-width="2" stroke-linecap="butt" stroke-linejoin="round" marker-end="url(#connector-arrow-21)" stroke-dasharray="0 0 58.936769999999996 7" d="M 0 0 L 0 65.93677"/></g>
<g id="o1:47" transform="translate(1840, 633)"><rect x="0" y="0" width="169" height="38.063" fill="rgba(217, 245, 214, 1)" stroke="#62d256" stroke-width="2" rx="19.031615" ry="19.031615"/><text font-size="14" font-family="Noto Sans SC" font-weight="normal" fill="#2b2f36" text-anchor="middle" dominant-baseline="alphabetic" x="84.5"><tspan x="84.5" y="25.367"><tspan x="56.5" text-anchor="start">小组通过</tspan></tspan></text></g>
<g id="c1:60" transform="translate(1924.5, 603.797)"><path fill="none" stroke="#bbbfc4" stroke-width="2" stroke-linecap="butt" stroke-linejoin="round" marker-end="url(#connector-arrow-22)" stroke-dasharray="0 0 22.203003 7" d="M 0 0 L 0 29.203003"/></g>
<g id="c1:61" transform="translate(1924.5, 671.06323)"><path fill="none" stroke="#bbbfc4" stroke-width="2" stroke-linecap="butt" stroke-linejoin="round" marker-end="url(#connector-arrow-23)" stroke-dasharray="0 0 22.203003 7" d="M 0 0 L 0 29.203003"/></g>
<g id="c2:1" transform="translate(1579.3859, 155)"><path fill="none" stroke="#bbbfc4" stroke-width="2" stroke-dasharray="4 4" d="M 0 0 L 82.30664 0"/><g transform="translate(41.15332, -6.123233995736766e-17) translate(-140, -14.136)"><text font-size="14" font-family="Noto Sans SC" font-weight="normal" fill="#2b2f36" text-anchor="middle" dominant-baseline="alphabetic" x="140"><tspan x="140" y="20.471"><tspan x="119" text-anchor="start">时间线</tspan></tspan></text></g></g>
</svg>